<svg id="visual" viewBox="0 0 900 600" width="900" height="600" xmlns="http://www.w3.org/2000/svg" xmlns:xlink="http://www.w3.org/1999/xlink" version="1.1"><rect x="0" y="0" width="900" height="600" fill="#111111"></rect><path d="M0 221L21.5 212.7C43 204.3 86 187.7 128.8 190.2C171.7 192.7 214.3 214.3 257.2 225.8C300 237.3 343 238.7 385.8 232C428.7 225.3 471.3 210.7 514.2 216.5C557 222.3 600 248.7 642.8 243.5C685.7 238.3 728.3 201.7 771.2 176.2C814 150.7 857 136.3 878.5 129.2L900 122L900 601L878.5 601C857 601 814 601 771.2 601C728.3 601 685.7 601 642.8 601C600 601 557 601 514.2 601C471.3 601 428.7 601 385.8 601C343 601 300 601 257.2 601C214.3 601 171.7 601 128.8 601C86 601 43 601 21.5 601L0 601Z" fill="#222222"></path><path d="M0 339L21.5 321.2C43 303.3 86 267.7 128.8 252.3C171.7 237 214.3 242 257.2 248C300 254 343 261 385.8 273.8C428.7 286.7 471.3 305.3 514.2 307.3C557 309.3 600 294.7 642.8 297.8C685.7 301 728.3 322 771.2 308.3C814 294.7 857 246.3 878.5 222.2L900 198L900 601L878.5 601C857 601 814 601 771.2 601C728.3 601 685.7 601 642.8 601C600 601 557 601 514.2 601C471.3 601 428.7 601 385.8 601C343 601 300 601 257.2 601C214.3 601 171.7 601 128.8 601C86 601 43 601 21.5 601L0 601Z" fill="#3d3d3d"></path><path d="M0 382L21.5 381C43 380 86 378 128.8 362.5C171.7 347 214.3 318 257.2 315.2C300 312.3 343 335.7 385.8 341.5C428.7 347.3 471.3 335.7 514.2 332.3C557 329 600 334 642.8 345.5C685.7 357 728.3 375 771.2 374.3C814 373.7 857 354.3 878.5 344.7L900 335L900 601L878.5 601C857 601 814 601 771.2 601C728.3 601 685.7 601 642.8 601C600 601 557 601 514.2 601C471.3 601 428.7 601 385.8 601C343 601 300 601 257.2 601C214.3 601 171.7 601 128.8 601C86 601 43 601 21.5 601L0 601Z" fill="#5a5a5a"></path><path d="M0 465L21.5 459.5C43 454 86 443 128.8 435C171.7 427 214.3 422 257.2 414.2C300 406.3 343 395.7 385.8 390.8C428.7 386 471.3 387 514.2 392.2C557 397.3 600 406.7 642.8 405.3C685.7 404 728.3 392 771.2 393.5C814 395 857 410 878.5 417.5L900 425L900 601L878.5 601C857 601 814 601 771.2 601C728.3 601 685.7 601 642.8 601C600 601 557 601 514.2 601C471.3 601 428.7 601 385.8 601C343 601 300 601 257.2 601C214.3 601 171.7 601 128.8 601C86 601 43 601 21.5 601L0 601Z" fill="#797979"></path><path d="M0 543L21.5 543.3C43 543.7 86 544.3 128.8 541.7C171.7 539 214.3 533 257.2 524.3C300 515.7 343 504.3 385.8 504.7C428.7 505 471.3 517 514.2 525C557 533 600 537 642.8 529.2C685.7 521.3 728.3 501.7 771.2 493.5C814 485.3 857 488.7 878.5 490.3L900 492L900 601L878.5 601C857 601 814 601 771.2 601C728.3 601 685.7 601 642.8 601C600 601 557 601 514.2 601C471.3 601 428.7 601 385.8 601C343 601 300 601 257.2 601C214.3 601 171.7 601 128.8 601C86 601 43 601 21.5 601L0 601Z" fill="#999999"></path></svg>